<svg width="433" height="346" viewBox="0 0 433 346" fill="none" xmlns="http://www.w3.org/2000/svg">
<g clip-path="url(#clip0_421_2355)">
<path d="M224.263 293.098L236.955 289.788L233.252 301.055L236.955 312.291L224.263 309.012L211.535 312.291L215.274 301.055L211.535 289.788L224.263 293.098Z" fill="black" stroke="white" stroke-miterlimit="10"/>
</g>
<g clip-path="url(#clip1_421_2355)">
<path d="M90.1002 237.548L112.798 248.495L90.1002 259.53L77.6836 279.578L65.2669 259.53L42.5693 248.495L65.2669 237.548L77.6836 217.412L90.1002 237.548Z" fill="black" stroke="white" stroke-miterlimit="10"/>
</g>
<path d="M406.989 265.457C405.657 267.595 403.162 269.164 399.511 270.144C395.859 271.124 391.11 271.497 385.377 271.278C373.913 270.841 358.636 268.042 340.602 263.156C304.542 253.386 257.561 235.298 208.214 211.203C158.866 187.109 116.521 161.581 87.9496 139.794C73.6607 128.897 62.8375 118.952 56.3039 110.602C53.0362 106.426 50.8593 102.671 49.8479 99.4144C48.8368 96.158 49.0054 93.4526 50.3377 91.3146C51.67 89.1765 54.1651 87.6071 57.8161 86.627C61.4677 85.6468 66.2167 85.2739 71.9502 85.4928C83.4141 85.9306 98.6908 88.7288 116.725 93.6149C152.785 103.385 199.766 121.473 249.113 145.568C298.461 169.662 340.806 195.19 369.378 216.977C383.666 227.874 394.49 237.819 401.023 246.169C404.291 250.345 406.468 254.1 407.479 257.357C408.49 260.613 408.322 263.318 406.989 265.457Z" stroke="black"/>
<path d="M392.401 288.866C391.069 291.005 388.574 292.574 384.923 293.554C381.272 294.534 376.523 294.907 370.789 294.688C359.325 294.25 344.048 291.452 326.014 286.566C289.954 276.796 242.973 258.708 193.626 234.613C144.279 210.519 101.933 184.991 73.3617 163.204C59.0728 152.307 48.2496 142.362 41.716 134.012C38.4483 129.836 36.2714 126.081 35.26 122.824C34.2489 119.568 34.4175 116.862 35.7498 114.724C37.0821 112.586 39.5772 111.017 43.2282 110.037C46.8798 109.057 51.6288 108.684 57.3623 108.903C68.8262 109.34 84.1029 112.139 102.137 117.025C138.197 126.795 185.178 144.883 234.525 168.978C283.873 193.072 326.218 218.6 354.79 240.387C369.079 251.284 379.902 261.229 386.435 269.579C389.703 273.755 391.88 277.51 392.891 280.767C393.902 284.023 393.734 286.728 392.401 288.866Z" stroke="black"/>
<path d="M377.815 312.277C376.483 314.415 373.988 315.984 370.337 316.964C366.685 317.944 361.936 318.317 356.203 318.098C344.739 317.661 329.462 314.862 311.428 309.976C275.368 300.206 228.387 282.118 179.04 258.023C129.692 233.929 87.3466 208.401 58.7753 186.614C44.4863 175.717 33.6632 165.772 27.1296 157.422C23.8619 153.246 21.6849 149.491 20.6736 146.234C19.6625 142.978 19.8311 140.273 21.1634 138.135C22.4957 135.997 24.9908 134.427 28.6417 133.447C32.2933 132.467 37.0424 132.094 42.7759 132.313C54.2397 132.751 69.5165 135.549 87.5506 140.435C123.61 150.205 170.592 168.293 219.939 192.388C269.286 216.483 311.632 242.01 340.203 263.797C354.492 274.694 365.315 284.639 371.849 292.989C375.117 297.165 377.294 300.92 378.305 304.177C379.316 307.433 379.147 310.139 377.815 312.277Z" stroke="black"/>
<ellipse cx="94.8252" cy="83.7051" rx="11.1772" ry="9.89406" fill="#EDFF1E"/>
<ellipse cx="303.587" cy="294.672" rx="7.2111" ry="6.38327" fill="#B9FF66"/>
<ellipse cx="58.7693" cy="58.172" rx="16.9461" ry="15.0007" fill="black"/>
<path d="M220.639 222.289C216.093 223.533 210.898 221.068 209.091 216.793L180.969 150.813L197.402 146.311L225.552 212.382C227.359 216.612 225.157 221.045 220.639 222.289Z" fill="black"/>
<path d="M218.183 223.103C216.856 223.103 215.5 222.855 214.201 222.334C211.576 221.294 209.486 219.349 208.47 216.951L180.347 150.971C180.234 150.722 180.404 150.428 180.743 150.338L197.176 145.836C197.345 145.791 197.514 145.791 197.656 145.859C197.797 145.927 197.91 146.017 197.966 146.153L226.117 212.224C228.008 216.702 225.637 221.43 220.808 222.764C219.99 222.99 219.086 223.103 218.183 223.103ZM181.759 151.129L209.684 216.634C210.587 218.783 212.451 220.547 214.766 221.452C216.63 222.176 218.634 222.312 220.441 221.814C224.62 220.661 226.653 216.499 224.959 212.54L197.006 146.945L181.759 151.129Z" fill="black"/>
<path d="M194.493 89.3562L141.326 119.734L120.629 136.947L112.498 148.46L112.469 148.551C110.86 150.541 111.792 155.133 114.813 159.815C117.778 164.429 121.956 167.641 124.893 167.822L124.808 167.867L140.422 169.224L169.646 165.492L231.679 147.714L308.789 158.299L309.325 158.322C289.956 155.427 263.81 134.685 244.808 105.348C225.834 76.0336 219.792 47.0584 228.121 32.7631H228.093L194.916 88.6324L194.493 89.3562Z" fill="#94FFFF"/>
<path d="M322.141 157.045C341.198 149.117 337.513 113.174 313.91 76.765C290.307 40.3558 255.724 17.2675 236.667 25.1958C217.61 33.1241 221.295 69.0668 244.898 105.476C268.501 141.885 303.083 164.973 322.141 157.045Z" fill="white"/>
<path d="M313.759 159.114C305.458 159.114 295.463 155.404 284.705 148.189C270.051 138.372 255.679 123.24 244.244 105.552C226.936 78.7705 219.792 51.3109 226.06 35.5906C228.15 30.3429 231.651 26.6786 236.423 24.7107C245.91 20.8203 259.265 24.1226 274.06 34.0298C288.714 43.8466 303.086 58.9788 314.521 76.667C331.858 103.448 339.001 130.908 332.705 146.628C330.615 151.876 327.114 155.54 322.342 157.508C319.773 158.594 316.893 159.114 313.759 159.114ZM245.063 24.1226C242.154 24.1226 239.444 24.5977 237.016 25.6155C232.526 27.4477 229.251 30.931 227.274 35.9298C221.091 51.424 228.206 78.5896 245.373 105.144C268.752 141.267 303.03 164.384 321.806 156.671C326.295 154.839 329.571 151.355 331.547 146.357C337.731 130.862 330.615 103.697 313.448 77.142C293.091 45.7013 264.517 24.1226 245.063 24.1226Z" fill="black"/>
<path d="M313.759 159.114C305.458 159.114 295.463 155.404 284.705 148.189C270.051 138.372 255.679 123.24 244.244 105.552C226.936 78.7705 219.792 51.3109 226.06 35.5906C228.15 30.3429 231.651 26.6786 236.423 24.7107C242.776 22.0869 251.077 22.7429 260.423 26.5881C269.373 30.2751 279.058 36.812 288.488 45.4751C288.714 45.6787 288.686 45.9954 288.432 46.1763C288.178 46.3573 287.783 46.3347 287.557 46.1311C268.413 28.5334 249.044 20.6619 237.016 25.6155C232.526 27.4477 229.251 30.931 227.274 35.9299C221.091 51.424 228.206 78.5896 245.373 105.144C265.703 136.562 294.305 158.164 313.731 158.164C316.639 158.164 319.35 157.689 321.778 156.671C326.267 154.839 329.542 151.355 331.519 146.357C337.702 130.862 330.587 103.697 313.42 77.142C308.31 69.2253 302.55 61.7836 296.366 55.0204C296.168 54.7942 296.225 54.4776 296.507 54.3192C296.79 54.1609 297.185 54.2061 297.383 54.4323C303.622 61.2407 309.382 68.7276 314.55 76.6896C331.858 103.448 339.001 130.908 332.705 146.628C330.615 151.876 327.114 155.54 322.342 157.508C319.773 158.594 316.893 159.114 313.759 159.114Z" fill="black"/>
<path d="M278.9 110.697C283.315 108.86 282.466 100.541 277.004 92.1146C271.542 83.6886 263.535 78.347 259.12 80.1836C254.705 82.0203 255.554 90.3399 261.016 98.7659C266.479 107.192 274.486 112.534 278.9 110.697Z" fill="#94FFFF"/>
<path d="M276.968 111.568C272.111 111.568 265.335 106.547 260.45 98.9696C256.384 92.6815 254.719 86.2124 256.215 82.4802C256.751 81.1683 257.627 80.2409 258.841 79.7433C263.641 77.7754 271.857 83.1362 277.561 91.935C281.627 98.2232 283.293 104.692 281.796 108.424C281.26 109.736 280.384 110.664 279.17 111.161C278.493 111.433 277.758 111.568 276.968 111.568ZM261.043 80.3088C260.45 80.3088 259.886 80.3993 259.406 80.6028C258.474 80.9874 257.796 81.7112 257.373 82.7743C255.989 86.2576 257.599 92.4553 261.523 98.5172C266.719 106.547 274.54 111.953 278.577 110.279C279.509 109.895 280.187 109.171 280.61 108.108C281.994 104.602 280.356 98.4267 276.46 92.3648C271.886 85.3302 265.335 80.3088 261.043 80.3088Z" fill="#94FFFF"/>
<path d="M309.467 150.677C302.182 150.677 293.429 147.42 283.999 141.109C271.18 132.514 258.587 119.259 248.592 103.787C233.43 80.3538 227.19 56.3096 232.667 42.5346C234.503 37.9203 237.58 34.7083 241.787 32.9667C251.444 29.0083 265.646 33.5774 280.78 45.4977C281.034 45.7012 281.034 45.9953 280.78 46.1989C280.526 46.4024 280.159 46.4024 279.905 46.1989C265.166 34.5952 251.472 30.0714 242.352 33.8488C238.455 35.4548 235.604 38.4631 233.853 42.8286C228.46 56.3549 234.672 80.105 249.693 103.335C267.453 130.817 292.441 149.682 309.439 149.682C311.98 149.682 314.324 149.252 316.469 148.392C320.366 146.786 323.218 143.778 324.968 139.412C330.361 125.886 324.149 102.136 309.128 78.9062C304.582 71.8942 299.5 65.3121 294.022 59.3632C293.825 59.137 293.881 58.8204 294.164 58.662C294.446 58.5037 294.841 58.5489 295.039 58.7751C300.573 64.7918 305.684 71.3966 310.258 78.4538C325.42 101.887 331.66 125.931 326.182 139.706C324.347 144.321 321.269 147.533 317.062 149.274C314.747 150.202 312.206 150.677 309.467 150.677Z" fill="black"/>
<path d="M140.451 169.7C140.423 169.7 140.394 169.7 140.394 169.7L124.78 168.342C124.696 168.342 124.611 168.32 124.526 168.275C121.307 167.867 117.242 164.61 114.277 160.041C111.115 155.223 110.183 150.519 111.905 148.302L111.933 148.234L120.065 136.698C120.093 136.653 120.122 136.63 120.15 136.608L140.846 119.395C140.874 119.372 140.903 119.349 140.931 119.327L193.957 89.0171L227.5 32.5371C227.585 32.424 227.698 32.3335 227.867 32.2882C228.037 32.243 228.206 32.243 228.347 32.3109C228.658 32.424 228.799 32.718 228.658 32.9668C220.159 47.5562 226.879 76.5539 245.345 105.099C263.839 133.69 289.618 154.861 309.467 157.779C309.778 157.825 310.004 158.051 309.975 158.322C309.947 158.571 309.665 158.752 309.354 158.775L308.818 158.752C308.789 158.752 308.761 158.752 308.733 158.752L231.764 148.189L169.872 165.922C169.844 165.922 169.787 165.945 169.759 165.945L140.536 169.677C140.507 169.7 140.479 169.7 140.451 169.7ZM125.232 167.392L140.451 168.704L169.533 164.972L231.538 147.216C231.651 147.194 231.735 147.171 231.848 147.194L301.138 156.694C282.418 150.111 260.535 130.682 244.3 105.574C228.178 80.648 220.978 55.3372 224.931 39.3454L195.058 89.56C195.001 89.6278 194.945 89.6957 194.86 89.7409L141.75 120.118L121.138 137.241L113.006 148.777C113.006 148.8 112.978 148.822 112.978 148.822C111.51 150.654 112.498 155.178 115.35 159.589C118.145 163.909 122.183 167.166 124.95 167.325C125.063 167.325 125.147 167.347 125.232 167.392Z" fill="black"/>
<path d="M194.577 89.1753L228.092 32.7405H228.12C219.791 47.0358 225.862 76.011 244.807 105.325C263.81 134.685 289.956 155.427 309.381 158.277L308.845 158.254L231.847 147.691L230.069 147.442C221.118 146.176 209.175 136.857 200.619 123.556C191.838 109.917 190.285 96.323 194.182 89.8539L194.577 89.1753Z" fill="white"/>
<path d="M309.381 158.775C309.381 158.775 309.353 158.775 309.381 158.775L308.817 158.752C308.788 158.752 308.76 158.752 308.732 158.752L231.734 148.189L229.956 147.94C220.497 146.605 208.497 136.902 200.055 123.805C190.483 108.922 190.003 95.6671 193.617 89.6504L194.04 88.9718L227.556 32.5596C227.64 32.4465 227.753 32.356 227.923 32.3108C228.092 32.2656 228.262 32.2656 228.403 32.3334C228.713 32.4465 228.854 32.7406 228.713 32.9894C220.214 47.5787 226.934 76.5765 245.4 105.122C263.894 133.712 289.673 154.884 309.523 157.802C309.833 157.847 310.059 158.073 310.031 158.345C309.946 158.571 309.692 158.775 309.381 158.775ZM224.873 39.3454L195.142 89.4016L194.718 90.0801C191.132 96.0516 192.177 109.397 201.156 123.33C209.429 136.178 221.09 145.678 230.182 146.945L231.96 147.194L301.108 156.694C282.388 150.111 260.506 130.682 244.271 105.574C228.149 80.6479 220.949 55.3371 224.873 39.3454Z" fill="black"/>
<path d="M139.603 169.632C139.575 169.632 139.547 169.632 139.547 169.632L124.752 168.365C124.667 168.365 124.582 168.342 124.498 168.297C121.279 167.89 117.213 164.633 114.248 160.064C111.114 155.223 110.182 150.519 111.905 148.302L111.933 148.234L120.065 136.698C120.234 136.449 120.601 136.382 120.912 136.517C121.222 136.653 121.307 136.947 121.138 137.196L113.006 148.777C113.006 148.799 112.978 148.822 112.978 148.822C111.509 150.654 112.498 155.178 115.349 159.589C118.145 163.909 122.182 167.166 124.949 167.325C125.034 167.325 125.147 167.347 125.203 167.392L139.66 168.637C139.999 168.659 140.253 168.908 140.196 169.179C140.168 169.428 139.914 169.632 139.603 169.632Z" fill="black"/>
<path d="M140.592 169.134C135.792 168.863 129.072 163.412 124.187 155.879C119.02 147.895 117.806 139.639 120.968 136.698L112.526 148.46L112.469 148.551C110.86 150.541 111.792 155.133 114.813 159.815C117.778 164.429 121.956 167.641 124.893 167.822L124.808 167.867L140.592 169.134Z" fill="white"/>
<path d="M140.592 169.632C140.563 169.632 140.563 169.632 140.535 169.632C140.422 169.632 140.281 169.609 140.168 169.609L124.752 168.365C124.667 168.365 124.582 168.342 124.498 168.297C121.279 167.89 117.213 164.633 114.248 160.064C111.114 155.223 110.182 150.519 111.905 148.302L111.933 148.234L119.359 137.874C119.641 137.286 120.008 136.766 120.46 136.336C120.658 136.133 121.025 136.11 121.279 136.246C121.533 136.404 121.618 136.676 121.448 136.902L120.403 138.327C118.738 141.923 120.375 148.98 124.667 155.585C129.326 162.801 135.679 168.071 140.225 168.546L140.563 168.569C140.902 168.591 141.156 168.84 141.128 169.111C141.156 169.428 140.902 169.632 140.592 169.632ZM125.203 167.392L135.989 168.275C131.839 166.148 127.265 161.76 123.622 156.105C120.093 150.654 118.342 144.999 118.625 140.928L113.006 148.777C113.006 148.799 112.978 148.822 112.978 148.822C111.509 150.654 112.498 155.178 115.349 159.589C118.145 163.909 122.182 167.166 124.949 167.325C125.034 167.325 125.147 167.347 125.203 167.392Z" fill="black"/>
<path d="M168.601 165.583L169.843 165.379C163.123 166.51 152.507 158.367 145.025 146.809C137.373 135.002 135.933 123.217 141.354 119.734L140.648 120.299L121.025 136.63C117.806 139.526 118.992 147.827 124.187 155.857C129.185 163.592 136.272 169.111 141.1 169.089L168.601 165.583Z" fill="black"/>
<path d="M141.073 169.609C135.934 169.609 128.79 164.067 123.623 156.105C118.372 147.963 117.045 139.458 120.546 136.314L139.802 120.299C140.141 119.937 140.536 119.621 140.96 119.349C141.214 119.191 141.581 119.214 141.807 119.395C142.033 119.598 142.033 119.892 141.807 120.073L140.706 121.001C136.781 125.208 138.729 135.974 145.59 146.583C152.988 158.028 163.322 165.877 169.647 164.927L169.732 164.904C170.07 164.859 170.381 165.017 170.466 165.289C170.522 165.56 170.324 165.809 169.986 165.877C169.957 165.877 169.929 165.877 169.901 165.9L168.743 166.08H168.715L141.214 169.586C141.157 169.586 141.101 169.609 141.073 169.609ZM138.165 123.104L121.478 136.992C118.372 139.797 119.783 147.985 124.753 155.653C129.609 163.163 136.47 168.591 141.073 168.614L165.355 165.515C158.804 163.66 150.729 156.671 144.489 147.058C138.56 137.897 136.273 128.578 138.165 123.104Z" fill="black"/>
<path d="M259.124 80.173C254.691 81.9825 255.34 90.3742 260.987 98.7433C270.446 112.745 277.985 111.093 278.86 110.845C278.889 110.845 278.889 110.867 278.86 110.867L262.625 121.34C257.853 115.979 253.307 110.008 249.129 103.561C245.147 97.3862 241.787 91.2338 239.133 85.2623L259.124 80.173Z" fill="black"/>
<path d="M262.625 121.837C262.597 121.837 262.569 121.837 262.54 121.837C262.371 121.815 262.23 121.747 262.117 121.634C257.232 116.137 252.686 110.121 248.592 103.81C244.667 97.7481 241.279 91.573 238.569 85.4659C238.512 85.3301 238.512 85.1944 238.597 85.0813C238.682 84.9682 238.795 84.8778 238.964 84.8325L258.954 79.7432C259.265 79.6754 259.604 79.7885 259.717 80.0373C259.83 80.2861 259.717 80.5575 259.434 80.6706C258.474 81.0551 257.769 81.8242 257.345 82.9551C255.962 86.5063 257.656 92.7945 261.58 98.5624C270.813 112.224 277.929 110.664 278.691 110.437C278.973 110.347 279.312 110.46 279.453 110.664C279.594 110.867 279.538 111.161 279.312 111.32L263.02 121.724C262.907 121.792 262.766 121.837 262.625 121.837ZM239.952 85.579C242.635 91.4826 245.91 97.454 249.693 103.335C253.646 109.442 258.051 115.255 262.766 120.616L276.856 111.523C273.637 111.41 267.566 109.487 260.451 98.9695C256.329 92.8849 254.634 86.4611 256.131 82.5932C256.329 82.0956 256.554 81.6658 256.837 81.2587L239.952 85.579Z" fill="black"/>
<path d="M342.661 47.9046C355.569 42.4745 360.562 29.7257 353.812 19.4294C347.063 9.13317 331.127 5.18839 318.22 10.6185C305.312 16.0487 300.319 28.7974 307.068 39.0937C313.818 49.39 329.753 53.3347 342.661 47.9046Z" fill="black"/>
<path d="M318.418 24.5975C319.661 23.2404 321.496 22.4035 323.585 22.2225C325.167 22.0868 326.635 22.3582 328.018 23.0368C328.724 23.3761 329.345 23.8059 329.938 24.3261C330.362 23.7154 330.87 23.1725 331.463 22.7202C332.621 21.8154 334.004 21.2951 335.557 21.1594C337.647 20.9785 339.68 21.4761 341.261 22.5844C342.814 23.6702 343.802 25.2535 344.056 27.0404C344.31 28.8726 343.689 30.6369 342.108 32.5821C340.696 34.3238 338.55 36.1333 336.065 38.2595C335.218 38.9833 334.258 39.7976 333.27 40.6571C333.016 40.8833 332.649 41.0417 332.254 41.0643C331.858 41.1095 331.491 41.0191 331.153 40.8381C329.938 40.1595 328.781 39.5262 327.764 38.9833C324.771 37.3547 322.174 35.9524 320.31 34.5047C318.221 32.8988 317.148 31.2702 316.894 29.438C316.668 27.6511 317.204 25.9321 318.418 24.5975Z" fill="white"/>
<path d="M415.889 49.0566C425.339 41.4865 425.339 29.2129 415.889 21.6428C406.44 14.0728 391.119 14.0727 381.669 21.6428C372.22 29.2129 372.22 41.4865 381.669 49.0566C391.119 56.6267 406.44 56.6267 415.889 49.0566Z" fill="#FFA9A9"/>
<path d="M398.774 55.2241C385.108 55.2241 373.956 46.3121 373.956 35.3418C373.956 24.3941 385.08 15.4596 398.774 15.4596C412.468 15.4596 423.593 24.3715 423.593 35.3418C423.593 46.2895 412.468 55.2241 398.774 55.2241ZM398.774 16.4548C385.786 16.4548 375.198 24.9144 375.198 35.3418C375.198 45.7466 385.758 54.2288 398.774 54.2288C411.763 54.2288 422.351 45.7692 422.351 35.3418C422.351 24.937 411.791 16.4548 398.774 16.4548Z" fill="#FFA9A9"/>
<path d="M405.324 37.2645C403.969 37.2645 402.783 37.7847 401.992 38.599L393.832 36.043C393.832 35.9526 393.861 35.8847 393.861 35.7942C393.861 35.6359 393.832 35.4776 393.804 35.3192L402.162 32.2204C402.924 32.9216 404.054 33.374 405.324 33.3966C407.639 33.3966 409.559 31.8811 409.559 30.0037C409.559 28.1263 407.668 26.5882 405.324 26.5882C403.009 26.5882 401.089 28.1037 401.089 29.9811C401.089 30.1394 401.117 30.2978 401.145 30.4561L392.788 33.5549C392.025 32.8537 390.896 32.4014 389.625 32.3787C387.31 32.3787 385.39 33.8942 385.39 35.7716C385.39 37.649 387.282 39.1871 389.625 39.1871C390.981 39.1871 392.167 38.6669 392.957 37.8526L401.117 40.4085C401.117 40.499 401.089 40.5669 401.089 40.6573C401.089 42.5347 402.981 44.0728 405.324 44.0728C407.639 44.0728 409.559 42.5574 409.559 40.68C409.531 38.8026 407.639 37.2871 405.324 37.2645Z" fill="black"/>
<path d="M405.646 110.497C416.727 104.336 419.51 92.1862 411.864 83.3605C404.217 74.5349 389.035 72.3752 377.954 78.5366C366.873 84.6981 364.089 96.8475 371.736 105.673C379.383 114.499 394.565 116.658 405.646 110.497Z" fill="black"/>
<path d="M385.703 103.787L382.145 88.3385C381.976 87.5468 382.879 86.8908 383.839 87.0944L404.874 91.8671C405.947 92.1159 406.202 93.2242 405.326 93.7671L387.82 104.443C387.058 104.941 385.9 104.602 385.703 103.787Z" fill="white"/>
<path d="M391.561 173.779C405.245 168.442 410.971 155.284 404.35 144.389C397.73 133.494 381.27 128.989 367.586 134.325C353.902 139.662 348.176 152.82 354.796 163.715C361.417 174.61 377.877 179.115 391.561 173.779Z" fill="#96FFB4"/>
<path d="M379.434 176.531C376.497 176.531 373.504 176.169 370.596 175.377C363.481 173.477 357.721 169.496 354.389 164.113C351.057 158.752 350.549 152.667 352.949 146.967C357.918 135.228 373.9 128.827 388.61 132.74C395.725 134.64 401.485 138.621 404.817 144.004C408.149 149.365 408.657 155.449 406.257 161.149C402.248 170.559 391.208 176.531 379.434 176.531ZM379.716 132.604C368.45 132.604 357.89 138.304 354.078 147.307C351.791 152.758 352.271 158.571 355.462 163.683C358.652 168.817 364.158 172.64 370.963 174.45C385.024 178.182 400.299 172.075 405.043 160.855C407.33 155.404 406.85 149.591 403.659 144.479C400.469 139.345 394.963 135.522 388.158 133.712C385.363 132.943 382.511 132.604 379.716 132.604Z" fill="black"/>
<path d="M393.609 150.496C393.326 155.992 381.722 168.84 378.955 171.848C378.672 172.165 378.079 172.142 377.825 171.803C376.075 169.541 370.287 161.941 367.265 155.789C366.051 153.346 365.289 151.129 365.374 149.569C365.684 143.326 372.263 138.463 380.056 138.711C387.849 139.005 393.919 144.253 393.609 150.496Z" fill="black"/>
<path d="M384.058 153.71C386.583 151.687 386.583 148.407 384.058 146.384C381.533 144.362 377.439 144.362 374.914 146.384C372.389 148.407 372.389 151.687 374.914 153.71C377.439 155.732 381.533 155.732 384.058 153.71Z" fill="#96FFB4"/>
<defs>
<clipPath id="clip0_421_2355">
<rect width="25.96" height="22.9798" fill="white" transform="translate(211.284 289.565)"/>
</clipPath>
<clipPath id="clip1_421_2355">
<rect width="47.8903" height="47.8903" fill="white" transform="matrix(0.748779 0.66282 -0.748779 0.66282 77.6836 216.796)"/>
</clipPath>
</defs>
</svg>
